<svg width="64" height="64" viewBox="0 0 64 64" fill="none" xmlns="http://www.w3.org/2000/svg">
<g id="fluent-mdl2:diagnostic">
<path id="Vector" d="M60 4V60H4V4H60ZM8 8V40H12.6875L16.0938 36.5938C16.4896 36.1979 16.9583 36 17.5 36C18.0417 36 18.5104 36.1979 18.9062 36.5938L24.4375 42.0938L32.0625 12.5C32.1667 12.0625 32.3958 11.7083 32.75 11.4375C33.1042 11.1667 33.5208 11.0208 34 11C34.4792 11 34.8958 11.1354 35.25 11.4062C35.6042 11.6771 35.8333 12.0521 35.9375 12.5312L39.125 25.5625H44C44.4583 25.5625 44.8646 25.6979 45.2188 25.9688C45.5729 26.2396 45.8125 26.6042 45.9375 27.0625L48.1875 36H56V8H8ZM56 56V40H46.625C46.1458 40 45.7292 39.8646 45.375 39.5938C45.0208 39.3229 44.7917 38.9479 44.6875 38.4688L42.4375 29.5625H37.5625C37.0833 29.5625 36.6667 29.4271 36.3125 29.1562C35.9583 28.8854 35.7292 28.5104 35.625 28.0312L33.9375 21.2188L27.4375 46.5C27.3333 46.9375 27.1042 47.2917 26.75 47.5625C26.3958 47.8333 25.9792 47.9792 25.5 48C24.9583 48 24.4896 47.8021 24.0938 47.4062L17.5 40.8125L14.9062 43.4062C14.5104 43.8021 14.0417 44 13.5 44H8V56H56Z" fill="#EF4444"/>
</g>
</svg>
