<svg width="69" height="64" viewBox="0 0 69 64" fill="none" xmlns="http://www.w3.org/2000/svg">
<g id="fa:gears" clip-path="url(#clip0_124_138)">
<path id="Vector" d="M32.0146 32C32.0146 29.4762 31.1218 27.3214 29.3361 25.5357C27.5504 23.75 25.3956 22.8571 22.8718 22.8571C20.348 22.8571 18.1932 23.75 16.4075 25.5357C14.6218 27.3214 13.7289 29.4762 13.7289 32C13.7289 34.5238 14.6218 36.6786 16.4075 38.4643C18.1932 40.25 20.348 41.1428 22.8718 41.1428C25.3956 41.1428 27.5504 40.25 29.3361 38.4643C31.1218 36.6786 32.0146 34.5238 32.0146 32ZM59.4432 50.2857C59.4432 49.0476 58.9908 47.9762 58.0861 47.0714C57.1813 46.1667 56.1099 45.7143 54.8718 45.7143C53.6337 45.7143 52.5623 46.1667 51.6575 47.0714C50.7527 47.9762 50.3004 49.0476 50.3004 50.2857C50.3004 51.5476 50.7468 52.625 51.6397 53.5178C52.5325 54.4107 53.6099 54.8571 54.8718 54.8571C56.1337 54.8571 57.2111 54.4107 58.1039 53.5178C58.9968 52.625 59.4432 51.5476 59.4432 50.2857ZM59.4432 13.7143C59.4432 12.4762 58.9908 11.4047 58.0861 10.5C57.1813 9.59522 56.1099 9.14284 54.8718 9.14284C53.6337 9.14284 52.5623 9.59522 51.6575 10.5C50.7527 11.4047 50.3004 12.4762 50.3004 13.7143C50.3004 14.9762 50.7468 16.0536 51.6397 16.9464C52.5325 17.8393 53.6099 18.2857 54.8718 18.2857C56.1337 18.2857 57.2111 17.8393 58.1039 16.9464C58.9968 16.0536 59.4432 14.9762 59.4432 13.7143ZM45.7289 28.75V35.3571C45.7289 35.5952 45.6456 35.8274 45.4789 36.0536C45.3123 36.2798 45.1218 36.4048 44.9075 36.4286L39.3718 37.2857C39.1099 38.119 38.7289 39.0238 38.2289 40C39.0385 41.1428 40.1099 42.5119 41.4432 44.1071C41.6099 44.369 41.6932 44.6071 41.6932 44.8214C41.6932 45.1071 41.6099 45.3333 41.4432 45.5C40.8956 46.2143 39.9135 47.2798 38.4968 48.6964C37.0801 50.1131 36.1456 50.8214 35.6932 50.8214C35.4313 50.8214 35.1813 50.7381 34.9432 50.5714L30.8361 47.3571C29.9551 47.8095 29.0385 48.1786 28.0861 48.4643C27.8242 51.0357 27.5504 52.8809 27.2647 54C27.098 54.5714 26.7408 54.8571 26.1932 54.8571H19.5504C19.2885 54.8571 19.0504 54.7678 18.8361 54.5893C18.6218 54.4107 18.5027 54.2024 18.4789 53.9643L17.6575 48.5C16.848 48.2619 15.9551 47.8928 14.9789 47.3928L10.7646 50.5714C10.598 50.7381 10.3599 50.8214 10.0504 50.8214C9.78846 50.8214 9.53846 50.7262 9.30036 50.5357C5.87179 47.369 4.15751 45.4643 4.15751 44.8214C4.15751 44.6071 4.24084 44.3809 4.40751 44.1428C4.6456 43.8095 5.1337 43.1786 5.87179 42.25C6.60989 41.3214 7.16941 40.5952 7.55036 40.0714C7.00274 39.0238 6.58608 38.0476 6.30036 37.1428L0.871791 36.2857C0.633696 36.2619 0.431315 36.1488 0.264648 35.9464C0.0979818 35.744 0.0146484 35.5119 0.0146484 35.25V28.6428C0.0146484 28.4047 0.0979818 28.1726 0.264648 27.9464C0.431315 27.7202 0.621791 27.5952 0.836077 27.5714L6.37179 26.7143C6.6337 25.8809 7.01465 24.9762 7.51465 24C6.70512 22.8571 5.6337 21.4881 4.30036 19.8928C4.1337 19.6309 4.05036 19.3928 4.05036 19.1786C4.05036 18.8928 4.1337 18.6547 4.30036 18.4643C4.82417 17.75 5.80036 16.6905 7.22893 15.2857C8.65751 13.8809 9.59798 13.1786 10.0504 13.1786C10.3123 13.1786 10.5623 13.2619 10.8004 13.4286L14.9075 16.6428C15.717 16.2143 16.6337 15.8333 17.6575 15.5C17.9194 12.9286 18.1932 11.0952 18.4789 9.99998C18.6456 9.42856 19.0027 9.14284 19.5504 9.14284H26.1932C26.4551 9.14284 26.6932 9.23213 26.9075 9.4107C27.1218 9.58927 27.2408 9.7976 27.2647 10.0357L28.0861 15.5C28.8956 15.7381 29.7885 16.1071 30.7647 16.6071L34.9789 13.4286C35.1694 13.2619 35.4075 13.1786 35.6932 13.1786C35.9551 13.1786 36.2051 13.2738 36.4432 13.4643C39.8718 16.6309 41.5861 18.5357 41.5861 19.1786C41.5861 19.369 41.5027 19.5952 41.3361 19.8571C41.0504 20.2381 40.5504 20.8809 39.8361 21.7857C39.1218 22.6905 38.5861 23.4047 38.2289 23.9286C38.7766 25.0714 39.1813 26.0476 39.4432 26.8571L44.8718 27.6786C45.1099 27.7262 45.3123 27.8512 45.4789 28.0536C45.6456 28.2559 45.7289 28.4881 45.7289 28.75ZM68.5861 47.7857V52.7857C68.5861 53.1667 66.8123 53.5357 63.2647 53.8928C62.9789 54.5357 62.6218 55.1548 62.1932 55.75C63.4075 58.4405 64.0146 60.0833 64.0146 60.6786C64.0146 60.7738 63.967 60.8571 63.8718 60.9286C60.967 62.619 59.4908 63.4643 59.4432 63.4643C59.2527 63.4643 58.7051 62.9048 57.8004 61.7857C56.8956 60.6667 56.2766 59.8571 55.9432 59.3571C55.467 59.4048 55.1099 59.4286 54.8718 59.4286C54.6337 59.4286 54.2766 59.4048 53.8004 59.3571C53.467 59.8571 52.848 60.6667 51.9432 61.7857C51.0385 62.9048 50.4908 63.4643 50.3004 63.4643C50.2527 63.4643 48.7766 62.619 45.8718 60.9286C45.7766 60.8571 45.7289 60.7738 45.7289 60.6786C45.7289 60.0833 46.3361 58.4405 47.5504 55.75C47.1218 55.1548 46.7647 54.5357 46.4789 53.8928C42.9313 53.5357 41.1575 53.1667 41.1575 52.7857V47.7857C41.1575 47.4048 42.9313 47.0357 46.4789 46.6786C46.7885 45.9881 47.1456 45.369 47.5504 44.8214C46.3361 42.1309 45.7289 40.4881 45.7289 39.8928C45.7289 39.7976 45.7766 39.7143 45.8718 39.6428C45.967 39.5952 46.3837 39.3571 47.1218 38.9286C47.8599 38.5 48.5623 38.0952 49.2289 37.7143C49.8956 37.3333 50.2527 37.1428 50.3004 37.1428C50.4908 37.1428 51.0385 37.6964 51.9432 38.8036C52.848 39.9107 53.467 40.7143 53.8004 41.2143C54.2766 41.1667 54.6337 41.1428 54.8718 41.1428C55.1099 41.1428 55.467 41.1667 55.9432 41.2143C57.1575 39.5238 58.2527 38.1905 59.2289 37.2143L59.4432 37.1428C59.5385 37.1428 61.0147 37.9762 63.8718 39.6428C63.967 39.7143 64.0146 39.7976 64.0146 39.8928C64.0146 40.4881 63.4075 42.1309 62.1932 44.8214C62.598 45.369 62.9551 45.9881 63.2647 46.6786C66.8123 47.0357 68.5861 47.4048 68.5861 47.7857ZM68.5861 11.2143V16.2143C68.5861 16.5952 66.8123 16.9643 63.2647 17.3214C62.9789 17.9643 62.6218 18.5833 62.1932 19.1786C63.4075 21.869 64.0146 23.5119 64.0146 24.1071C64.0146 24.2024 63.967 24.2857 63.8718 24.3571C60.967 26.0476 59.4908 26.8928 59.4432 26.8928C59.2527 26.8928 58.7051 26.3333 57.8004 25.2143C56.8956 24.0952 56.2766 23.2857 55.9432 22.7857C55.467 22.8333 55.1099 22.8571 54.8718 22.8571C54.6337 22.8571 54.2766 22.8333 53.8004 22.7857C53.467 23.2857 52.848 24.0952 51.9432 25.2143C51.0385 26.3333 50.4908 26.8928 50.3004 26.8928C50.2527 26.8928 48.7766 26.0476 45.8718 24.3571C45.7766 24.2857 45.7289 24.2024 45.7289 24.1071C45.7289 23.5119 46.3361 21.869 47.5504 19.1786C47.1218 18.5833 46.7647 17.9643 46.4789 17.3214C42.9313 16.9643 41.1575 16.5952 41.1575 16.2143V11.2143C41.1575 10.8333 42.9313 10.4643 46.4789 10.1071C46.7885 9.41665 47.1456 8.7976 47.5504 8.24998C46.3361 5.55951 45.7289 3.91665 45.7289 3.32141C45.7289 3.22617 45.7766 3.14284 45.8718 3.07141C45.967 3.02379 46.3837 2.7857 47.1218 2.35713C47.8599 1.92855 48.5623 1.52379 49.2289 1.14284C49.8956 0.761887 50.2527 0.571411 50.3004 0.571411C50.4908 0.571411 51.0385 1.12498 51.9432 2.23213C52.848 3.33927 53.467 4.14284 53.8004 4.64284C54.2766 4.59522 54.6337 4.57141 54.8718 4.57141C55.1099 4.57141 55.467 4.59522 55.9432 4.64284C57.1575 2.95236 58.2527 1.61903 59.2289 0.64284L59.4432 0.571411C59.5385 0.571411 61.0147 1.40474 63.8718 3.07141C63.967 3.14284 64.0146 3.22617 64.0146 3.32141C64.0146 3.91665 63.4075 5.55951 62.1932 8.24998C62.598 8.7976 62.9551 9.41665 63.2647 10.1071C66.8123 10.4643 68.5861 10.8333 68.5861 11.2143Z" fill="#EF4444"/>
</g>
<defs>
<clipPath id="clip0_124_138">
<rect width="68.6" height="64" fill="white"/>
</clipPath>
</defs>
</svg>
