<svg width="16" height="13" viewBox="0 0 16 13" fill="none" xmlns="http://www.w3.org/2000/svg">
<path id="Vector" d="M1.43556 12.4444C1.02667 12.4444 0.685333 12.3076 0.411556 12.0338C0.137185 11.7594 0 11.4178 0 11.0089V1.43556C0 1.02667 0.137185 0.685333 0.411556 0.411555C0.685333 0.137185 1.02667 0 1.43556 0H14.5644C14.9733 0 15.3147 0.137185 15.5884 0.411555C15.8628 0.685333 16 1.02667 16 1.43556V11.0089C16 11.4178 15.8631 11.7591 15.5893 12.0329C15.315 12.3073 14.9733 12.4444 14.5644 12.4444H1.43556ZM8 6.32444L15.1111 1.67556L14.8373 0.888889L8 5.33333L1.16267 0.888889L0.888889 1.67556L8 6.32444Z" fill="#EF4444"/>
</svg>
