<svg width="18" height="19" viewBox="0 0 18 19" fill="none" xmlns="http://www.w3.org/2000/svg">
<path id="Vector" d="M16.2037 12.5756L13.6637 12.2779C13.365 12.2419 13.0623 12.2758 12.7782 12.3772C12.4942 12.4785 12.2362 12.6446 12.0237 12.863L10.1837 14.7519C7.34486 13.2698 5.03745 10.901 3.59367 7.98677L5.44367 6.08761C5.87367 5.64618 6.08367 5.03023 6.01367 4.40402L5.72367 1.81704C5.66698 1.31625 5.43287 0.854356 5.06591 0.519293C4.69895 0.18423 4.22478 -0.00059773 3.73367 1.45229e-06H2.00367C0.873674 1.45229e-06 -0.0663265 0.964984 0.00367348 2.12502C0.533673 10.892 7.36367 17.8932 15.8937 18.4373C17.0237 18.5092 17.9637 17.5442 17.9637 16.3842V14.6082C17.9737 13.5714 17.2137 12.6988 16.2037 12.5756Z" fill="white"/>
</svg>
