<svg width="40" height="40" viewBox="0 0 40 40" fill="none" xmlns="http://www.w3.org/2000/svg">
<g id="fluent-mdl2:c-r-m-services" clip-path="url(#clip0_124_44)">
<path id="Vector" d="M23.1445 23.0273C21.9987 22.0508 20.7292 21.3021 19.3359 20.7812C17.9427 20.2604 16.4974 20 15 20C13.8542 20 12.7474 20.1497 11.6797 20.4492C10.612 20.7487 9.61589 21.1654 8.69141 21.6992C7.76693 22.2331 6.92708 22.8841 6.17188 23.6523C5.41667 24.4206 4.76562 25.2669 4.21875 26.1914C3.67188 27.1159 3.2487 28.112 2.94922 29.1797C2.64974 30.2474 2.5 31.3542 2.5 32.5H0C0 30.9375 0.227865 29.4336 0.683594 27.9883C1.13932 26.543 1.79688 25.2083 2.65625 23.9844C3.51562 22.7604 4.53125 21.6732 5.70312 20.7227C6.875 19.7721 8.20312 19.0234 9.6875 18.4766C8.21615 17.513 7.07031 16.3021 6.25 14.8438C5.42969 13.3854 5.01302 11.7708 5 10C5 8.61979 5.26042 7.32422 5.78125 6.11328C6.30208 4.90234 7.01172 3.84115 7.91016 2.92969C8.80859 2.01823 9.86979 1.30208 11.0938 0.78125C12.3177 0.260417 13.6198 0 15 0C16.3802 0 17.6758 0.260417 18.8867 0.78125C20.0977 1.30208 21.1589 2.01172 22.0703 2.91016C22.9818 3.80859 23.6979 4.86979 24.2188 6.09375C24.7396 7.31771 25 8.61979 25 10C25 10.8594 24.8958 11.6992 24.6875 12.5195C24.4792 13.3398 24.1667 14.1146 23.75 14.8438C23.3333 15.5729 22.8451 16.2435 22.2852 16.8555C21.7253 17.4674 21.0677 18.0078 20.3125 18.4766C21.1589 18.8021 21.9661 19.1992 22.7344 19.668C23.5026 20.1367 24.2253 20.6641 24.9023 21.25L23.1445 23.0273ZM7.5 10C7.5 11.0417 7.69531 12.0117 8.08594 12.9102C8.47656 13.8086 9.01042 14.6029 9.6875 15.293C10.3646 15.9831 11.1589 16.5234 12.0703 16.9141C12.9818 17.3047 13.9583 17.5 15 17.5C16.0286 17.5 16.9987 17.3047 17.9102 16.9141C18.8216 16.5234 19.6159 15.9896 20.293 15.3125C20.9701 14.6354 21.5104 13.8411 21.9141 12.9297C22.3177 12.0182 22.513 11.0417 22.5 10C22.5 8.97135 22.3047 8.0013 21.9141 7.08984C21.5234 6.17839 20.9896 5.38411 20.3125 4.70703C19.6354 4.02995 18.8346 3.48958 17.9102 3.08594C16.9857 2.68229 16.0156 2.48698 15 2.5C13.9583 2.5 12.9883 2.69531 12.0898 3.08594C11.1914 3.47656 10.3971 4.01042 9.70703 4.6875C9.01693 5.36458 8.47656 6.16536 8.08594 7.08984C7.69531 8.01432 7.5 8.98438 7.5 10ZM33.75 15C34.6094 15 35.4167 15.1628 36.1719 15.4883C36.9271 15.8138 37.5846 16.263 38.1445 16.8359C38.7044 17.4089 39.1536 18.0729 39.4922 18.8281C39.8307 19.5833 40 20.3906 40 21.25C40 22.1094 39.8372 22.9167 39.5117 23.6719C39.1862 24.4271 38.737 25.0911 38.1641 25.6641C37.5911 26.237 36.9271 26.6862 36.1719 27.0117C35.4167 27.3372 34.6094 27.5 33.75 27.5C33.4505 27.5 33.1576 27.4805 32.8711 27.4414L21.4062 38.9062C21.0547 39.2578 20.651 39.5247 20.1953 39.707C19.7396 39.8893 19.2578 39.987 18.75 40C18.2292 40 17.7409 39.9023 17.2852 39.707C16.8294 39.5117 16.4323 39.2448 16.0938 38.9062C15.7552 38.5677 15.4883 38.1706 15.293 37.7148C15.0977 37.2591 15 36.7708 15 36.25C15 35.7552 15.0911 35.2799 15.2734 34.8242C15.4557 34.3685 15.7292 33.9583 16.0938 33.5938L27.5586 22.1289C27.5195 21.8424 27.5 21.5495 27.5 21.25C27.5 20.3906 27.6628 19.5833 27.9883 18.8281C28.3138 18.0729 28.7565 17.4154 29.3164 16.8555C29.8763 16.2956 30.5404 15.8464 31.3086 15.5078C32.0768 15.1693 32.8906 15 33.75 15ZM33.75 25C34.2708 25 34.7591 24.9023 35.2148 24.707C35.6706 24.5117 36.0677 24.2448 36.4062 23.9062C36.7448 23.5677 37.0117 23.1706 37.207 22.7148C37.4023 22.2591 37.5 21.7708 37.5 21.25C37.5 20.7161 37.3763 20.1823 37.1289 19.6484L34.2773 22.5H32.5V20.7227L35.3516 17.8711C34.8177 17.6237 34.2839 17.5 33.75 17.5C33.2292 17.5 32.7409 17.5977 32.2852 17.793C31.8294 17.9883 31.4323 18.2552 31.0938 18.5938C30.7552 18.9323 30.4883 19.3294 30.293 19.7852C30.0977 20.2409 30 20.7292 30 21.25C30 21.7839 30.1237 22.3177 30.3711 22.8516L17.8711 35.3711C17.6237 35.6185 17.5 35.9115 17.5 36.25C17.5 36.5885 17.6237 36.8815 17.8711 37.1289C18.1185 37.3763 18.4115 37.5 18.75 37.5C19.0885 37.5 19.3815 37.3763 19.6289 37.1289L32.1484 24.6289C32.6823 24.8763 33.2161 25 33.75 25Z" fill="#EF4444"/>
</g>
<defs>
<clipPath id="clip0_124_44">
<rect width="40" height="40" fill="white"/>
</clipPath>
</defs>
</svg>
