<svg width="40" height="40" viewBox="0 0 40 40" fill="none" xmlns="http://www.w3.org/2000/svg">
<g id="ri:team-line">
<path id="Vector" d="M19.9997 18.3333C22.2098 18.3333 24.3294 19.2112 25.8922 20.774C27.455 22.3368 28.333 24.4564 28.333 26.6666V36.6666H24.9997V26.6666C24.9997 25.3912 24.5125 24.1641 23.6375 23.2362C22.7626 22.3082 21.5662 21.7497 20.293 21.6749L19.9997 21.6666C18.7243 21.6665 17.4972 22.1538 16.5692 23.0287C15.6413 23.9037 15.0828 25.1001 15.008 26.3733L14.9997 26.6666V36.6666H11.6663V26.6666C11.6663 24.4564 12.5443 22.3368 14.1071 20.774C15.6699 19.2112 17.7895 18.3333 19.9997 18.3333ZM9.16634 23.3333C9.63134 23.3333 10.083 23.3883 10.5163 23.4899C10.2314 24.3383 10.0626 25.2213 10.0147 26.1149L9.99967 26.6666V26.8099C9.80809 26.7414 9.60883 26.6966 9.40634 26.6766L9.16634 26.6666C8.54513 26.6666 7.94617 26.8978 7.48616 27.3153C7.02616 27.7328 6.73806 28.3066 6.67801 28.9249L6.66634 29.1666V36.6666H3.33301V29.1666C3.33301 27.6195 3.94759 26.1358 5.04155 25.0418C6.13551 23.9478 7.61925 23.3333 9.16634 23.3333ZM30.833 23.3333C32.3801 23.3333 33.8638 23.9478 34.9578 25.0418C36.0518 26.1358 36.6663 27.6195 36.6663 29.1666V36.6666H33.333V29.1666C33.333 28.5454 33.1017 27.9464 32.6843 27.4864C32.2668 27.0264 31.693 26.7383 31.0747 26.6783L30.833 26.6666C30.5413 26.6666 30.2613 26.7166 29.9997 26.8083V26.6666C29.9997 25.5566 29.8197 24.4899 29.4863 23.4933C29.9163 23.3883 30.3697 23.3333 30.833 23.3333ZM9.16634 13.3333C10.2714 13.3333 11.3312 13.7722 12.1126 14.5536C12.894 15.335 13.333 16.3949 13.333 17.4999C13.333 18.605 12.894 19.6648 12.1126 20.4462C11.3312 21.2276 10.2714 21.6666 9.16634 21.6666C8.06127 21.6666 7.00146 21.2276 6.22006 20.4462C5.43866 19.6648 4.99967 18.605 4.99967 17.4999C4.99967 16.3949 5.43866 15.335 6.22006 14.5536C7.00146 13.7722 8.06127 13.3333 9.16634 13.3333ZM30.833 13.3333C31.9381 13.3333 32.9979 13.7722 33.7793 14.5536C34.5607 15.335 34.9997 16.3949 34.9997 17.4999C34.9997 18.605 34.5607 19.6648 33.7793 20.4462C32.9979 21.2276 31.9381 21.6666 30.833 21.6666C29.7279 21.6666 28.6681 21.2276 27.8867 20.4462C27.1053 19.6648 26.6663 18.605 26.6663 17.4999C26.6663 16.3949 27.1053 15.335 27.8867 14.5536C28.6681 13.7722 29.7279 13.3333 30.833 13.3333ZM9.16634 16.6666C8.94533 16.6666 8.73337 16.7544 8.57709 16.9107C8.42081 17.0669 8.33301 17.2789 8.33301 17.4999C8.33301 17.7209 8.42081 17.9329 8.57709 18.0892C8.73337 18.2455 8.94533 18.3333 9.16634 18.3333C9.38736 18.3333 9.59932 18.2455 9.7556 18.0892C9.91188 17.9329 9.99967 17.7209 9.99967 17.4999C9.99967 17.2789 9.91188 17.0669 9.7556 16.9107C9.59932 16.7544 9.38736 16.6666 9.16634 16.6666ZM30.833 16.6666C30.612 16.6666 30.4 16.7544 30.2438 16.9107C30.0875 17.0669 29.9997 17.2789 29.9997 17.4999C29.9997 17.7209 30.0875 17.9329 30.2438 18.0892C30.4 18.2455 30.612 18.3333 30.833 18.3333C31.054 18.3333 31.266 18.2455 31.4223 18.0892C31.5785 17.9329 31.6663 17.7209 31.6663 17.4999C31.6663 17.2789 31.5785 17.0669 31.4223 16.9107C31.266 16.7544 31.054 16.6666 30.833 16.6666ZM19.9997 3.33325C21.7678 3.33325 23.4635 4.03563 24.7137 5.28587C25.964 6.53612 26.6663 8.23181 26.6663 9.99992C26.6663 11.768 25.964 13.4637 24.7137 14.714C23.4635 15.9642 21.7678 16.6666 19.9997 16.6666C18.2316 16.6666 16.5359 15.9642 15.2856 14.714C14.0354 13.4637 13.333 11.768 13.333 9.99992C13.333 8.23181 14.0354 6.53612 15.2856 5.28587C16.5359 4.03563 18.2316 3.33325 19.9997 3.33325ZM19.9997 6.66659C19.1156 6.66659 18.2678 7.01777 17.6427 7.6429C17.0175 8.26802 16.6663 9.11586 16.6663 9.99992C16.6663 10.884 17.0175 11.7318 17.6427 12.3569C18.2678 12.9821 19.1156 13.3333 19.9997 13.3333C20.8837 13.3333 21.7316 12.9821 22.3567 12.3569C22.9818 11.7318 23.333 10.884 23.333 9.99992C23.333 9.11586 22.9818 8.26802 22.3567 7.6429C21.7316 7.01777 20.8837 6.66659 19.9997 6.66659Z" fill="#EF4444"/>
</g>
</svg>
