<svg width="64" height="64" viewBox="0 0 64 64" fill="none" xmlns="http://www.w3.org/2000/svg">
<g id="ant-design:tool-outlined">
<path id="Vector" d="M54.7879 14.9688C54.7567 14.9125 54.7129 14.8563 54.6629 14.8125C54.3504 14.5 53.8442 14.5 53.5317 14.8125L42.7629 25.5813L38.5192 21.3375L49.2942 10.5625C49.3442 10.5125 49.3817 10.4625 49.4192 10.4063C49.6442 10.025 49.5192 9.53755 49.1379 9.31255C43.0004 5.68755 34.9629 6.5188 29.6817 11.7938C25.4942 15.9813 24.1067 21.9188 25.5254 27.2563L7.21294 45.5688C7.02544 45.7563 7.03794 46.0625 7.23169 46.2563L17.8379 56.8625C18.0317 57.0563 18.3442 57.0688 18.5254 56.8813L36.8317 38.575C42.1754 40 48.1129 38.6188 52.3067 34.425C57.5817 29.1438 58.4129 21.1063 54.7879 14.9688ZM49.1254 31.2375C45.4942 34.8688 40.0442 35.5688 35.7129 33.3375L35.1629 33.8875L35.1567 33.8813L18.0317 51.0125L13.0817 46.0625L27.4629 31.6813C27.4629 31.6813 27.4629 31.6875 27.4692 31.6875L30.7692 28.3875C28.5379 24.0563 29.2379 18.6063 32.8692 14.975C34.0403 13.8028 35.4507 12.8973 37.004 12.3202C38.5572 11.7431 40.2168 11.5081 41.8692 11.6313L33.5629 19.9313C33.1878 20.3069 32.977 20.816 32.977 21.3469C32.977 21.8778 33.1878 22.387 33.5629 22.7625L41.3442 30.5438C41.7198 30.919 42.2289 31.1297 42.7598 31.1297C43.2907 31.1297 43.7998 30.919 44.1754 30.5438L52.4754 22.2438C52.7067 25.4813 51.5754 28.7938 49.1254 31.2375Z" fill="#EF4444"/>
</g>
</svg>
